# xmcd CD database file
#
# Track frame offsets:
#	150
#	22290
#	51364
#	68179
#	99456
#	114195
#	136181
#	166034
#	194169
#	229697
#	254403
#
# Disc length: 3652 seconds
#
# Revision: 0
# Processed by: cddbd v1.5.2PL0 Copyright (c) Steve Scherf et al.
# Submitted via: CDex 1.51
#
DISCID=980e420b
DTITLE=Russell Malone  - TRIPLE PLAY 
DYEAR=2010
DGENRE=Jazz
TTITLE0=Honey Bone
TTITLE1=Butch And Butch
TTITLE2=Pecan Pie
TTITLE3=Sweet Georgia Peach
TTITLE4=Do I Love You
TTITLE5=Pocket Watch
TTITLE6=The Witching Hour
TTITLE7=Tail Feathers
TTITLE8=The Kind Of Girl She Is
TTITLE9=Mind Wine
TTITLE10=Unchained Melody
EXTD=YEAR: 2010
EXTT0=
EXTT1=
EXTT2=
EXTT3=
EXTT4=
EXTT5=
EXTT6=
EXTT7=
EXTT8=
EXTT9=
EXTT10=
PLAYORDER=
